<?xml version="1.0" encoding="UTF-8"?>
<svg id="Layer_2" data-name="Layer 2" xmlns="http://www.w3.org/2000/svg" viewBox="0 0 986.3 323.86">
  <defs>
    <style>
      .cls-1, .cls-2 {
        fill: #fff;
      }

      .cls-3 {
        fill: #4e1306;
      }

      .cls-2 {
        stroke: #000;
        stroke-miterlimit: 10;
      }
    </style>
  </defs>
  <g id="Layer_1-2" data-name="Layer 1">
    <g>
      <path class="cls-3" d="M371.44,252.09h0c-14.71-12.93-23.08-31.61-22.95-51.2,.1-18.58,8.55-36.13,23.02-47.79,.36-.25,1.48-.9,1.75-1.09-7.83-9.42-11.76-21.48-10.99-33.7-.24-14.56,4.59-28.75,13.66-40.14-.52-5.4-.84-8.58-.87-8.88-4.56-29.77-29.49-51.18-77.28-51.18-23.8,.06-47.1,6.88-67.18,19.68-10.2-12.62-30.06-19.67-54.35-19.65-23.78-.49-47.2,5.85-67.49,18.26v-14.14s-90.79,.03-90.79,.03v46.06c10.24-1.12,19.46,6.29,20.57,16.54,.11,.97,.13,1.95,.09,2.92l-.11,154.41c1.1,10.25-6.33,19.45-16.58,20.55-1.32,.14-2.65,.14-3.97,0l.02,42.8h112.75s0-42.81,0-42.81c-11.42,0-17.34-7.91-17.37-20.54l.03-142.48c-.01-15.16,11.98-22.14,28.05-22.14,15.53-.04,28.11,6.65,28.11,22.13l-.04,205.81h92.21s-.02-42.8-.02-42.8c-11.43,.02-17.35-7.89-17.34-20.51l-.04-142.49c0-15.87,12.52-22.15,28.08-22.13,15.56,.02,28.09,6.6,28.1,22.12,0,10.35-.05,205.82-.05,205.82h92.61s0-40.21,0-40.21c-7.92-3.16-15.24-7.64-21.65-13.25Z"/>
      <polygon class="cls-3" points="900.64 28.35 874.66 28.31 858.16 66.85 878.24 66.9 900.64 28.35"/>
      <path class="cls-3" d="M536.79,245.18v-27.25s-15.77,0-15.77,0l-10.05-9.08c5.23-5.29,9.39-11.55,12.25-18.42h13.54s0-27.17,0-27.17l-38.58,.02c-1.05,8.63-4.53,16.78-10.03,23.5l-31.76-30.9s30.33-14.07,30.33-41.45h0c-.02-28.32-23.12-43.6-52.78-43.61-26.91,0-53.9,15.04-53.9,47.53,.19,14.28,6.74,27.73,17.88,36.68,0,0-31.7,14.55-31.65,45.85,0,30.23,25.02,53.19,60.85,53.19,20.42,.97,40.49-5.53,56.48-18.27l9.77,9.38,43.43-.02Zm-119.82-133.8c.99-8.62,8.78-14.8,17.39-13.81,.14,0,.28-.02,.42-.02,9.33-.37,17.19,6.89,17.56,16.22,0,13.95-17.98,21.94-17.98,21.94,0,0-17.46-12.36-17.46-21.62-.05-.9-.03-1.81,.08-2.71Zm16.57,111.25c-.3,.03-.6,.05-.9,.08-13.98,.91-26.04-9.68-26.95-23.66h0c.31-9.59,5.59-18.32,13.92-23.05l40.04,37.92c-7.47,5.77-16.67,8.84-26.11,8.71Z"/>
      <path class="cls-3" d="M934.28,125.08c-24.88-6.88-34.93-9.65-34.94-19.32-.03-6.98,4.56-11.63,13.3-11.65,12.23-.64,23.59,6.3,28.6,17.48l21.66-.03-.06-39.61-23.02,.02,.04,6.53c-8.88-5.36-19.1-8.12-29.47-7.96-26.83-.07-46.53,16.31-46.49,39.84,.02,19.39,10.02,29.93,29.98,37.48,10.23,3.87,21.71,6.2,29.47,9.18,6.02,1.76,10.17,7.27,10.2,13.54-1.25,8.59-9.04,14.67-17.68,13.81-15.11,1.38-28.98-8.43-32.72-23.13l-20.47,.03,.03,46.17,21.8-.05v-6.87c10.08,6.45,21.79,9.9,33.77,9.95,32.47-.06,50.54-19.73,50.5-42.89,.24-20.63-14.26-38.5-34.5-42.51Z"/>
      <path class="cls-3" d="M920.3,53.87l-.02-7.77h1.87s4.31,7.77,4.31,7.77h4.72s-4.83-8.18-4.83-8.18c2.38,.1,4.38-1.74,4.49-4.12,.01-.25,0-.5-.03-.75-.03-4.24-2.85-5.58-7.64-5.57l-6.93,.06,.06,18.57,3.99-.02Zm2.69-15.43c1.52,0,3.58,.15,3.59,2.05,.01,1.9-1.06,2.39-2.82,2.39h0s-3.51,.03-3.51,.03l-.05-4.44,2.78-.02Z"/>
      <path class="cls-3" d="M841.01,240.62l.06-160.97c0-35.05-24.89-61.53-78.06-61.53-23.8,.05-47.1,6.87-67.17,19.67-10.19-12.64-30.05-19.69-54.35-19.67-23.78-.48-47.19,5.86-67.49,18.26v-14.14s-90.8,.01-90.8,.01v46.42s0,.05,0,.05c13.73,11.13,21.56,27.97,21.22,45.64,.25,11.53-3.99,22.7-11.84,31.16l61.87-.04,.04,117.34-71.3-.02v42.7s112.79,0,112.79,0l-.02-42.8c-11.42,0-17.34-7.92-17.34-20.54l.03-142.47c.01-15.17,11.98-22.14,28.08-22.14,15.53-.04,28.11,6.66,28.1,22.13l-.05,205.82,92.2,.02v-42.81c-11.45,0-17.37-7.92-17.36-20.54l.03-142.47c0-15.87,12.52-22.15,28.08-22.14,15.56,0,28.09,6.6,28.08,22.15,.01,10.35-.04,205.79-.04,205.79h92.64s-.07-42.71-.07-42.71c-13.17-.14-17.5-9.64-17.35-22.18Z"/>
      <path class="cls-3" d="M940.45,44.51c.33-22.48-35-22.49-34.66,0-.45,22.43,35.64,22.77,34.66,0Zm-18.2-13.24c16.53-1.52,18.67,26.12,1.69,26.49-16.84,1.65-18.62-25.6-1.69-26.49Z"/>
      <path class="cls-2" d="M434.36,135.7s17.98-7.99,17.98-21.94c-.37-9.33-8.23-16.59-17.56-16.22-.14,0-.28,.01-.42,.02-8.62-.99-16.4,5.2-17.39,13.81-.1,.9-.13,1.81-.08,2.71,0,9.26,17.46,21.62,17.46,21.62Z"/>
      <path class="cls-2" d="M405.68,199.03h0c.91,13.99,12.98,24.58,26.95,23.67,.3-.02,.6-.05,.9-.08,9.44,.13,18.64-2.94,26.11-8.71l-40.04-37.92c-8.34,4.73-13.61,13.46-13.92,23.04Z"/>
      <path class="cls-1" d="M923.94,57.76c16.98-.37,14.84-28.01-1.69-26.49-16.93,.9-15.15,28.14,1.69,26.49Zm-.76-22.51c4.78,0,7.61,1.33,7.64,5.57,.03,.25,.04,.5,.03,.75-.1,2.38-2.11,4.22-4.49,4.12l4.83,8.19h-4.72s-4.31-7.78-4.31-7.78h-1.87s.02,7.77,.02,7.77l-3.99,.02-.06-18.57,6.93-.06Z"/>
      <path class="cls-1" d="M923.77,42.89h0c1.76,0,2.83-.5,2.82-2.4-.01-1.9-2.08-2.04-3.59-2.05l-2.78,.02,.05,4.44,3.51-.02Z"/>
      <path class="cls-1" d="M986.28,167.83c.34-14.18-4.61-27.97-13.89-38.7l8.11,.03V54.76s-26.47-.02-26.47-.02c1.04-3.33,1.55-6.8,1.52-10.29,.46-15.54-10.69-29.01-26.04-31.47-2.84-.4-5.7-.64-8.56-.71l-57.17,.1-13.51,30.92c-1-1.94-2.06-3.87-3.25-5.81C831.74,12.74,800.62,.28,763.22,.3c-22.62-.35-44.96,5-64.97,15.56C680.89,4.62,660.44-.88,639.79,.12c-17.75-.32-35.32,3.46-51.36,11.07V4.45s-123.24,.03-123.24,.03V58.57c-10.01-3.68-20.62-5.51-31.29-5.39-14.59-.17-28.94,3.63-41.54,10.97-1.95-9.42-5.51-18.44-10.54-26.64C366.56,12.81,335.41,.36,298.01,.37c-22.6-.35-44.93,4.99-64.93,15.53C215.7,4.68,195.26-.81,174.6,.17c-17.74-.31-35.32,3.47-51.36,11.06l.02-6.73-123.26,.02L.02,86.42s2.22-.04,7.14,0c6.73-.69,12.74,4.21,13.42,10.94,.05,.49,.07,.98,.06,1.47-.09,31.77-.36,124.86-.1,131.82,1.3,6.54-2.96,12.9-9.51,14.2-1.22,.24-2.48,.29-3.72,.15-4.19,.09-7.3,0-7.3,0l.03,78.85,411.17-.03v-53.23c7.83,1.39,15.77,2.01,23.71,1.86,10.42-.19,20.7-2.35,30.32-6.36l-.02,57.74,411.18,.03-.02-78.88c-13.65,.8-17.21-4.99-17.22-14.62,.02-.69,0-2.55,.02-5.38h35.01s-.01-3.4-.01-3.4c9.72,3.6,20.1,5.09,30.44,4.38,15.56-.13,30.59-5.65,42.53-15.64,12.34-10.65,19.35-26.21,19.13-42.51h0Zm-45.84-123.32c.97,22.77-35.11,22.44-34.66,0-.33-22.49,34.99-22.49,34.66,0Zm-65.79-16.21l25.98,.04-22.4,38.56-20.08-.06,16.5-38.54ZM300.49,305.56s.04-195.48,.05-205.82c-.02-15.52-12.55-22.1-28.1-22.12-15.56-.02-28.07,6.26-28.08,22.13l.04,142.49c0,12.62,5.91,20.53,17.34,20.51l.02,42.8h-92.21s.04-205.81,.04-205.81c0-15.48-12.58-22.17-28.11-22.13-16.07,0-28.06,6.98-28.05,22.14l-.03,142.48c.03,12.62,5.95,20.54,17.37,20.54v42.81s-112.75,0-112.75,0l-.02-42.8c1.32,.14,2.65,.14,3.97,0,10.25-1.1,17.68-10.3,16.58-20.55l.11-154.41c.05-.97,.02-1.95-.09-2.92-1.12-10.25-10.33-17.66-20.58-16.54V22.28s90.8-.03,90.8-.03v14.14c20.29-12.41,43.71-18.74,67.49-18.26,24.29-.02,44.15,7.03,54.35,19.65,20.07-12.8,43.37-19.62,67.18-19.68,47.79,0,72.72,21.41,77.28,51.18,.03,.31,.35,3.49,.87,8.88-9.07,11.39-13.9,25.58-13.66,40.14-.78,12.23,3.16,24.28,10.99,33.7-.27,.18-1.39,.84-1.75,1.09-14.47,11.66-22.92,29.21-23.02,47.79-.14,19.59,8.24,38.27,22.95,51.2h0c6.41,5.61,13.74,10.09,21.65,13.25v40.2s-92.6,0-92.6,0Zm126.61-51.47c-35.83,0-60.86-22.96-60.85-53.19-.04-31.3,31.65-45.85,31.65-45.85-11.13-8.95-17.69-22.4-17.88-36.68,0-32.5,27-47.54,53.9-47.53,29.67,0,52.76,15.29,52.78,43.61h0c0,27.38-30.33,41.45-30.33,41.45l31.76,30.9c5.5-6.73,8.98-14.88,10.03-23.5l38.58-.02v27.17s-13.55,0-13.55,0c-2.85,6.87-7.01,13.13-12.25,18.42l10.05,9.08h15.77s0,27.25,0,27.25l-43.43,.02-9.77-9.38c-15.98,12.74-36.06,19.24-56.48,18.27Zm431.26,8.71l.07,42.71h-92.64s.05-195.44,.04-205.79c0-15.55-12.52-22.14-28.08-22.15-15.56,0-28.07,6.28-28.08,22.14l-.03,142.47c0,12.62,5.91,20.54,17.37,20.54v42.81s-92.21-.02-92.21-.02l.05-205.82c0-15.47-12.57-22.17-28.1-22.13-16.1,0-28.07,6.97-28.08,22.14l-.03,142.47c0,12.62,5.91,20.54,17.34,20.54l.02,42.8h-112.78s0-42.7,0-42.7l71.3,.02-.04-117.34-61.87,.04c7.84-8.45,12.09-19.63,11.84-31.16,.34-17.67-7.49-34.51-21.22-45.64v-.05s0-46.42,0-46.42h90.8s0,14.13,0,14.13c20.29-12.4,43.71-18.73,67.49-18.26,24.29-.02,44.15,7.03,54.35,19.67,20.07-12.79,43.37-19.61,67.17-19.67,53.17,0,78.07,26.48,78.06,61.53l-.06,160.97c-.15,12.53,4.18,22.04,17.35,22.18Zm59.92-52.31c-11.98-.06-23.69-3.51-33.78-9.95v6.87s-21.79,.05-21.79,.05l-.03-46.17,20.47-.03c3.74,14.7,17.61,24.51,32.72,23.13,8.64,.86,16.42-5.22,17.68-13.81-.03-6.27-4.18-11.78-10.2-13.54-7.76-2.98-19.24-5.31-29.47-9.18-19.96-7.55-29.96-18.09-29.98-37.48-.04-23.53,19.66-39.91,46.49-39.84,10.38-.16,20.59,2.6,29.47,7.96l-.04-6.53,23.02-.02,.06,39.61-21.66,.03c-5.01-11.17-16.37-18.11-28.6-17.48-8.74,.03-13.33,4.67-13.3,11.65,0,9.67,10.07,12.44,34.94,19.32,20.24,4.01,34.74,21.88,34.5,42.51,.03,23.16-18.03,42.83-50.5,42.89Z"/>
    </g>
  </g>
</svg>