<svg xmlns="http://www.w3.org/2000/svg" width="1000.092" height="437.041"><g clip-path="url(#1)" transform="matrix(.10983 0 0 .10983 0 .01)"><g clip-path="url(#2)"><path fill="#fff" d="M9099.601 1324.312A520.025 520.025 0 0 0 8925.4 992.917l73.2-9.999-94.199-670.801-238.598 33.301a306.827 306.827 0 0 0 .698-94.701c-15.542-140.712-133.063-248.048-274.6-250.806a684.16 684.16 0 0 0-78.1 4.395L7798.4 77.51l-82.699 295.899c-11.499-16.199-23.498-32.3-36.701-48.304-169.101-203.601-465.5-276.599-802.699-229.101a1227.268 1227.268 0 0 0-566.103 222.497 899.294 899.294 0 0 0-547-68.004A1046.674 1046.674 0 0 0 5314.1 415.292l-8.601-60.707-1111.1 156.203 68.5 487.694a799.138 799.138 0 0 0-289.001-8.996 734.303 734.303 0 0 0-360.698 151.502 758.1 758.1 0 0 0-128.701-226.905c-168.9-203.406-465.5-276.293-802.699-228.895a1226.736 1226.736 0 0 0-565.801 222.206 902.365 902.365 0 0 0-547.2-67.799 1050.053 1050.053 0 0 0-449.099 164.697l-8.301-60.705L0 1099.69l103.8 738.404s19.999-3.198 64.4-8.997c59.8-14.697 120.19 21.875 134.884 81.677a110.775 110.775 0 0 1 2.415 13.222c39.4 286.596 154.7 1126.294 165.9 1188.695 19.96 57.374-10.373 120.069-67.751 140.04a110.122 110.122 0 0 1-33.35 6.066c-37.7 6.103-65.8 9.302-65.8 9.302l100 710.901 3707.299-520.496-67.299-480.004a1113.566 1113.566 0 0 0 216.101-13.197 752.886 752.886 0 0 0 265.3-95.703l72.902 520.606 3707.501-519.994-100-711.207c-122.101 24.5-161.499-23.205-173.801-109.997-.698-6.201-3.201-22.998-6.602-48.499l315.703-44.3-4.401-30.603a666.945 666.945 0 0 0 279.999 1.001 611.486 611.486 0 0 0 363.699-194.799c97.819-111.633 141.269-260.804 118.702-407.496"/><path fill="#4e1306" d="M8404.799 298.916c21.549-2.087 37.329-21.24 35.245-42.786a39.43 39.43 0 0 0-1.245-6.713c-5.601-38.196-32.801-46.705-75.901-40.601l-62.399 9.302 24.001 167.395 36-5.2-10.001-69.996 16.9-2.404 48.701 64.599 42.599-5.896zm-26.9-21.997-31.599 4.602-6.101-40.002 25-3.699c13.699-1.904 32.5-3.198 35.001 13.904 2.501 17.102-6.5 22.888-22.401 25.097z"/><path fill="#4e1306" d="M8530.3 270.412c-25.484-203.149-343.996-158.469-312.532 43.886 24.311 202.851 350.132 160.186 312.532-43.886m-132.119 140.372c-149.752 36.191-200.248-207.245-48.748-236.744 147.079-34.627 201.38 211.915 48.748 236.744M8150.899 175.014l-234.301 32.496-100 368.395 181.101-24.902zM8066.298 2342.416c-118.899 15.405-170.001-64.795-184.5-178.003L7678.697 712.911c-44.298-316.003-302.3-523.304-781.697-456.005a1142.94 1142.94 0 0 0-580.801 262.303c-107.899-101.097-295.9-139.501-514.9-108.605a1134.848 1134.848 0 0 0-585.4 250l-17.901-127.502-818.699 115.002 58.8 418.506v.501c137.908 82.971 229.824 224.926 249.099 384.704a404.204 404.204 0 0 1-67.3 295.899l557.8-78.601 148.801 1057.995-642.899 90.003 54.099 384.997 1016.901-142.7-54.301-385.901c-103 14.405-166.4-49.499-182.299-163.305l-180.001-1284.595c-19.099-136.804 80.001-214.795 225.2-235.205 139.999-19.995 261.902 24.499 281.401 164.001l260.001 1855.896L6936 2893.795l-54.098-385.998c-103.298 14.502-166.7-49.402-182.599-163.196l-180-1284.595c-20-143.103 84.901-215.6 225.2-235.205 140.298-19.604 261.601 23.999 281.201 164.197 13.198 93.298 260 1855.603 260 1855.603l835.3-117.2zM3662.399 2862.02c-149.007-97.986-248.14-255.835-271.7-432.605-22.604-167.651 31.414-336.572 147.1-459.998 2.9-2.697 12.199-9.997 14.399-11.999a436.8 436.8 0 0 1-141.7-290.003 571.996 571.996 0 0 1 72.4-379.199c-11.501-47.998-18.401-76.294-19.1-79.004-78.799-262.695-330.7-424.194-761.6-363.696a1142.768 1142.768 0 0 0-580.799 262.402c-107.9-100.903-295.9-139.294-514.901-108.398a1133.28 1133.28 0 0 0-585.4 250l-17.9-127.503-818.601 115.101 58.2 415.295c91.019-23.035 183.478 32.08 206.513 123.096a170.082 170.082 0 0 1 4.488 26.208l194.4 1392.407c22.863 91.065-32.424 183.411-123.487 206.275a170.516 170.516 0 0 1-35.812 5.03l54.3 385.9 1016.6-142.7-54.1-385.999c-103 14.502-166.4-49.402-182.601-163.196l-180-1284.704c-19.299-136.694 80-214.795 224.899-235.095 140-19.995 261.901 24.401 281.501 164.001l260 1855.798 831.4-116.699-54.3-385.9c-103 14.6-166.4-49.195-182.3-163.001l-180.6-1284.705c-20-143.103 84.9-215.6 225.2-235.095 140.3-19.495 261.6 23.999 281.399 163.904 13.001 93.298 260.001 1855.896 260.001 1855.896l835.001-117.2-50.9-362.5a685.17 685.17 0 0 1-212-92.114"/><path fill="#4e1306" d="M4527.599 1474.923c34.701 246.899-221 412.097-221 412.097l325.5 238.403a417.5 417.5 0 0 0 60.7-224.597l347.799-48.999 34.301 244.995-122.099 17.102a523.987 523.987 0 0 1-87.101 181.604l102.1 69.202 142.199-19.995 34.501 245.703-391.6 55.102-100-72.204a766.615 766.615 0 0 1-486.099 236.206c-323.101 45.3-577.801-130.005-616.001-402.6-39.999-282.202 227.4-453.504 227.4-453.504-111.712-66.577-187.849-179.565-207.6-308.105-41.1-293.006 183.299-462.805 425.9-496.802 267.502-37.512 495.1 71.094 531.1 326.392M3904 2340.328c25.887 124.866 148.098 205.103 272.965 179.224a257.804 257.804 0 0 0 8.035-1.819 380.04 380.04 0 0 0 224.4-111.597l-408.999-291.296c-69.176 53.222-105.69 138.598-96.401 225.378zm312.801-828.003c-15.138-83.643-95.21-139.172-178.848-124.036a189.66 189.66 0 0 0-3.752.733c-78.952 1.99-141.343 67.602-139.353 146.557a143.132 143.132 0 0 0 2.753 24.549c11.7 83.496 184.801 172.802 184.801 172.802s151.998-94.812 134.399-220.605M8576.6 1004.623c-233-30.603-327.201-42.799-339.501-130.005-9.1-62.903 26.401-110.597 105.2-121.899 109.445-21.217 220.68 27.001 280.001 121.399l195.299-27.699-50.7-357.105-207.5 29.298 8.601 58.802a504.265 504.265 0 0 0-275.8-34.498c-242 33.301-398.9 205.896-368.802 418.006 24.701 174.805 128.202 257.202 317.702 300 97.099 21.996 203.599 28.406 277.299 45.495 56.52 8.251 100.896 52.674 109.099 109.205-.418 79.028-62.934 143.75-141.9 146.899-134.499 31.531-271.97-39.356-324.3-167.2l-184.5 26.197 58.7 416.295 196.5-28.002-8.8-61.902a576.466 576.466 0 0 0 317.199 46.997c292.701-41.601 430.702-241.797 401.099-450.598-23.94-186.34-177.325-329.126-364.896-339.685"/></g></g></svg>